<?xml version="1.0" encoding="UTF-8"?>
<svg id="Layer_1" data-name="Layer 1" xmlns="http://www.w3.org/2000/svg" viewBox="0 0 890.23 337.05">
  <defs>
    <style>
      .cls-1, .cls-2 {
        stroke-width: 0px;
      }

      .cls-2 {
        fill: #f2ca5c;
      }
    </style>
  </defs>
  <path class="cls-2" d="M793.8,5.84c-1.03-3.07-3.35-6.6-7.13-5.7-5.65,1.27-11.46.3-17.16.95-4.37.83-8.98.06-13.15,1.9-.05,2.16-.06,4.32-.12,6.48-2.12-.57-4.28-1.11-6.5-1.05-7.01,0-14.03.08-21.04-.01-5.22-.56-10.69-1.66-15.79.19-4.21,1.51-8.65,2.4-13.13,2.26-4.98.39-9.37-2.4-14.18-3.16-.6.34-1.79,1.04-2.38,1.39-.16,4.87-1.32,9.67-1.04,14.56-2.39-.09-5.28.85-7.15-1.23,1.88-3.02,1.34-7.03.73-10.37-3-1.24-6.16.22-9,1.22-7.59,1.94-15.2,3.86-22.63,6.37-2.65.64-3.62,4.28-6.82,3.22-.06-1.98-.1-3.95-.15-5.92-.88-.21-2.65-.64-3.53-.85-5.61.85-11.27,1.67-16.96,1.61-2.69-.38-3.7,2.91-6.2,3.23-7.33,1.99-14.64,4.05-21.91,6.24-1.46.35-3.14,1.2-4.6.4-.91-3.27-4.78-1.99-7.27-2.25-2.21-.36-3.8,1.24-5.5,2.32-3.01,1.22-6.32.89-9.5.95-11.47.01-22.95-.1-34.43.03-2.59,2.42-5.01,5.03-7.25,7.78-1.01,1.95-3.73,1.66-4.95.07-.03-.59-.09-1.78-.12-2.38-1.08-1.55-.81-3.77-2.17-5.13-6.21-1.79-12.75-.96-19.08-.47-3.02.25-6.24-.48-9.13.47-.67,2.74-1.14,5.68-3.67,7.4-.82,1.04-1.5,2.17-2.17,3.32-3.3.41-6.72-.28-9.96.54-6.45,3.21-8.81,12.29-16.41,13.55-8.53.42-17.09.07-25.63-.09-1.83-.13-3.57.51-5.26,1.16-.28.99-.57,1.97-.88,2.95.64,14.76.1,29.56.28,44.33v70.05c0,3.72-.17,7.47.41,11.16.57.32,1.69.95,2.26,1.26,10.07.62,20.18.19,30.27.29,5.9,3.47,9.02,10.45,15,13.68,15.65.98,31.37.19,47.04.6,6.19.58,6.75,8.64,11.66,11.15,10.35.92,20.79.12,31.16.9,4.14.33,8.29.04,12.39-.52,1.22.92,2.38,1.91,3.49,2.96,2.59-.17,7.31,1.6,7.98-2.02,6.23-.88,12.07,2.17,17.96,3.7,3.46,1.03,7.01,1.78,10.42,2.9,2.19,1.71,4.56,3.41,6.08,5.77l.16,3.16c.87.8,1.72,1.63,2.55,2.47,4.5,2.56,10.7.8,12.3-4.33.96-2.76,3.24-4.74,4.74-7.2,2.19-1,4.18.98,6.21,1.51,5.92,1.89,11.81,3.91,17.92,5.04,4.48.92,8.7,3.04,13.32,3.15.89-3.7,1.09-7.49.87-11.27,2.32-1.04,4.99-1.1,7.14.37.05,2.44.12,4.93-.69,7.27.98,2.78,1.82,5.61,2.9,8.37,4.19-.42,7.98-2.82,12.26-2.57,4.02.09,8.07-.2,12.08.21,3.5,1.4,7.15,2.55,10.97,2.34,11.78-.24,23.62.72,35.3-.94.09,2.12.23,4.29,1.33,6.18,3.55,1.26,7.36.51,10.99,1.27,4.43.99,9.02-.11,13.46.82,2.67.55,5.4.57,8.1.54.51-.34,1.51-1.02,2.01-1.37.53-1.98,1.18-3.93,1.75-5.9.84-1.27.77-2.84.88-4.28.84-2.04,1.78-4.04,2.76-6.02,2.39-2.55,5.79-4.14,9.3-4.18,7.83.09,15.49,2.09,23.3,2.45,4.53.66,9.05,1.4,13.61,1.72,3.63.89,7.2,2.07,10.92,2.5,7.48.62,14.86,2.04,22.35,2.65,4.38.81,8.82,1.62,13.3,1.47.06-7.91-.19-15.83.33-23.74l.64-.04c-.08-60.51.31-121.02.15-181.53-.73-6.02-.95-12.06-1.02-18.12-3.33-.14-6.66.02-9.94.6-12.59,2.07-25.49,2.68-37.75,6.4l-.51.42c-9.56,1.18-19.01,3.05-28.49,4.72-5.59,1.33-12.52,1.38-16.14-3.88-1.17-2.7-2.17-5.49-2.54-8.42ZM716,17.78c-.01.84-.01,2.52-.01,3.36-9.19-.01-18.39,0-27.58,0,0-.84-.01-2.52-.01-3.36,9.2-.02,18.4-.01,27.6,0ZM633.91,23.24c0,.47-.01,1.43-.01,1.9-6.14-.05-12.29.12-18.44-.06-.08-.46-.26-1.37-.35-1.83,6.27-.03,12.54-.01,18.8-.01ZM716,25.78c-.01.84-.01,2.52-.01,3.36-9.19-.01-18.39,0-27.58,0,0-.84-.01-2.52-.01-3.36,9.2-.02,18.4-.01,27.6,0ZM633.91,28.24c0,.48-.01,1.43-.02,1.9-4.73,0-9.47-.02-14.21.04-1.77-.03-3.7.21-5.21-.99.53-.23,1.6-.69,2.13-.92,5.77-.13,11.54.01,17.31-.03ZM581.64,30.43c-.18,1.51-1.49,1.97-2.85,1.77-1.73-.17-4.74.76-5.02-1.78,2.62-.25,5.26-.25,7.87.01ZM716,33.78c-.01.84-.01,2.52-.01,3.36-9.19-.01-18.39,0-27.58,0,0-.84-.01-2.52-.02-3.36,9.21-.02,18.41-.01,27.61,0ZM633.9,33.74v1.9c-6.21,0-12.42,0-18.62,0v-1.91c6.21,0,12.41,0,18.62.01ZM581.19,34.74c0,.48.01,1.42.01,1.89-2.33.01-4.66.01-7,.01v-1.9h6.99ZM633.9,39.24c0,.48,0,1.43-.01,1.91h-18.6c0-.48-.01-1.44-.01-1.91,6.21-.01,12.42-.01,18.62,0ZM581.72,39.48c-.44,1.38-1.47,2-2.93,1.72-1.71-.23-4.9.84-4.95-1.81,2.62-.22,5.26-.23,7.88.09ZM716,41.78c-.01.84-.01,2.52-.01,3.36-9.19-.01-18.39,0-27.58,0,0-.84-.01-2.52-.02-3.36,9.21-.02,18.41-.01,27.61,0ZM581.19,43.74c0,.48.01,1.42.01,1.9h-7v-1.9h6.99ZM633.9,44.24v1.9c-6.18-.05-12.37.12-18.55-.06,0-.44-.03-1.33-.04-1.78,6.19-.18,12.39-.01,18.59-.06ZM581.59,49.97c-2.61.24-5.25.25-7.86-.04.28-1.42,1.4-2.01,2.78-1.74,1.74.22,4.93-.86,5.08,1.78ZM716,49.78c-.01.84-.01,2.52-.01,3.36-9.19-.01-18.39,0-27.58,0,0-.84-.01-2.52-.02-3.36,9.21-.02,18.41-.01,27.61,0ZM633.9,49.74v1.9h-18.63l.02-1.91c6.2,0,12.41,0,18.61.01ZM581.19,52.74c0,.48.01,1.42.01,1.89-2.33.01-4.66.01-7,.01v-1.9c2.34-.01,4.67,0,6.99,0ZM633.9,55.24c0,.48,0,1.43-.01,1.91-6.14-.06-12.28.11-18.42-.07-.09-.46-.27-1.38-.35-1.84,6.26-.02,12.52,0,18.78,0ZM582.08,58.13c-1.9,1.39-4.32,1.12-6.53,1.01-1.04-.03-1.63-.6-1.78-1.71,2.78-.13,5.78-.8,8.31.7ZM716,57.78c-.01.84-.01,2.52-.01,3.36-9.19-.01-18.39,0-27.58,0,0-.84-.01-2.52-.02-3.36,9.21-.02,18.41-.01,27.61,0ZM633.9,60.74v1.9c-6.21,0-12.41,0-18.61,0v-1.9c6.2-.01,12.4-.01,18.61,0ZM581.2,61.74c0,.48-.01,1.42-.01,1.9h-6.99v-1.9c2.34-.01,4.67,0,7,0ZM716,65.78c-.01.84-.01,2.52-.01,3.36-9.19-.01-18.39,0-27.58,0,0-.84-.01-2.52-.02-3.36,9.2-.02,18.41-.01,27.61,0ZM633.9,65.74v1.9c-6.21,0-12.42,0-18.63,0l.02-1.91c6.2,0,12.4,0,18.61.01ZM581.54,66.37c-.12.39-.36,1.15-.48,1.53-2.27.05-6.56,1.6-7.29-1.47,2.59-.25,5.19-.25,7.77-.06ZM581.2,70.74v1.89c-2.33.01-4.66.01-7,.01v-1.9c2.33-.01,4.67,0,7,0ZM633.9,71.24c0,.47-.01,1.43-.01,1.91-6.14-.06-12.28.1-18.42-.07-.08-.46-.26-1.38-.35-1.85,6.26,0,12.52,0,18.78.01ZM716,73.78c-.01.84-.01,2.52-.01,3.36-9.19-.01-18.39,0-27.58,0,0-.84-.01-2.52-.02-3.36,9.21-.02,18.41-.01,27.61,0ZM581.57,75.39c-.13.37-.38,1.12-.51,1.49-2.26.11-6.59,1.61-7.29-1.45,2.6-.25,5.21-.26,7.8-.04ZM633.91,76.74l-.02,1.9h-18.61v-1.9c6.21-.01,12.42-.01,18.63,0ZM581.19,79.74c0,.48.01,1.42.01,1.9h-7v-1.9c2.33-.01,4.66-.01,6.99,0ZM716,81.78c-.01.84-.01,2.52-.01,3.36-9.19-.01-18.39,0-27.58,0,0-.84-.01-2.52-.02-3.36,9.21-.02,18.41-.01,27.61,0ZM633.9,81.74v1.9c-6.21,0-12.42,0-18.63,0l.02-1.91c6.2,0,12.4,0,18.61.01ZM581.46,84.42c-.1.43-.29,1.3-.39,1.73-2.25-.55-6.74,1.49-7.24-1.77,2.54-.21,5.1-.2,7.63.04ZM633.9,87.24c0,.47,0,1.43-.01,1.91-6.15-.07-12.3.13-18.45-.09l-.4-1.01.53-.73c6.11-.24,12.22,0,18.33-.08ZM581.19,88.74c0,.48.01,1.42.01,1.89-2.33.01-4.66.01-7,.01v-1.9c2.34-.01,4.67,0,6.99,0ZM716,89.78c-.01.84-.01,2.52-.01,3.36-9.19-.01-18.39,0-27.58,0,0-.84-.01-2.52-.02-3.36,9.21-.02,18.41-.01,27.61,0ZM633.9,92.74v1.9c-6.21,0-12.41,0-18.61,0v-1.9c6.2-.01,12.41-.01,18.61,0ZM581.56,93.39c-.13.37-.38,1.13-.5,1.51-2.28.06-6.51,1.6-7.31-1.47,2.6-.26,5.21-.25,7.81-.04ZM581.21,97.74c0,.48-.02,1.42-.02,1.9h-6.99v-1.9c2.34-.01,4.67,0,7.01,0ZM716,97.78c-.01.84-.01,2.52-.01,3.36-9.19-.01-18.39,0-27.58,0,0-.84-.01-2.52-.02-3.36,9.21-.02,18.41-.01,27.61,0ZM633.9,98.24v1.9c-4.73.02-9.46-.02-14.19.04-1.78-.07-3.79.29-5.23-1.06.54-.21,1.62-.64,2.16-.85,5.75-.12,11.51.01,17.26-.03ZM581.74,102.51c-.59,2.38-3.32,1.56-5.11,1.69-1.35.09-2.78-.14-2.84-1.77,2.64-.27,5.31-.3,7.95.08ZM633.91,103.24c-.01.48-.01,1.43-.02,1.9-4.73,0-9.46-.02-14.19.04-1.77-.1-3.83.35-5.22-1.11.54-.2,1.63-.6,2.18-.8,5.74-.13,11.5.01,17.25-.03ZM716,105.78c-.01.84-.01,2.52-.01,3.36-9.19-.01-18.39,0-27.58,0,0-.84-.01-2.52-.02-3.36,9.21-.02,18.41-.01,27.61,0ZM581.2,106.75c0,.47,0,1.41-.01,1.88-2.32.01-4.65.01-6.98.01,0-.48,0-1.43,0-1.9,2.33-.01,4.67,0,7,.01ZM633.9,108.74v1.9c-6.21,0-12.41,0-18.61,0l-.02-1.91c6.22-.01,12.43-.01,18.63,0ZM581.7,112.88c-2.79.21-5.89.95-8.39-.71,2.4-1.06,7.13-2.34,8.39.71ZM716,113.78c-.01.84-.01,2.52-.01,3.36-9.19-.01-18.39,0-27.58,0,0-.84-.01-2.52-.02-3.36,9.21-.02,18.41-.01,27.61,0ZM633.72,114.31c.09.45.26,1.37.34,1.82-6.19-.04-12.4.14-18.59-.07.01-.43.02-1.31.03-1.74,6.07-.16,12.15-.14,18.22,0ZM581.19,115.74c0,.48.01,1.42.01,1.9h-7v-1.9c2.33-.01,4.66-.01,6.99,0ZM633.9,119.24c0,.48,0,1.43-.01,1.9-6.16-.06-12.32.13-18.48-.06-.01-.45-.02-1.33-.02-1.78,6.17-.19,12.34-.01,18.51-.06ZM581.55,120.38c-.13.38-.37,1.15-.49,1.53-2.23.01-6.78,1.66-7.2-1.55,2.56-.17,5.13-.17,7.69.02ZM716,121.78c-.01.84-.01,2.52-.01,3.36-9.19-.01-18.39,0-27.58,0,0-.84-.01-2.52-.02-3.36,9.21-.02,18.41-.01,27.61,0ZM581.19,124.75c.01.47.01,1.41.01,1.88-2.33.01-4.66.01-7,.01v-1.9c2.34-.01,4.67-.01,6.99.01ZM633.91,124.74l-.02,1.9h-18.61v-1.9c6.21-.01,12.42-.01,18.63,0ZM581.65,130.92c-2.45-.26-7.04,1.83-7.85-1.51,2.47.32,6.91-1.73,7.85,1.51ZM716,129.78c-.01.84-.01,2.52-.01,3.36-9.19-.01-18.39,0-27.58,0,0-.84-.01-2.52-.02-3.36,9.21-.02,18.41-.01,27.61,0ZM633.91,130.24c-.01.47-.01,1.43-.01,1.9-6.15-.06-12.29.14-18.43-.07-.01-.44-.02-1.32-.03-1.76,6.15-.2,12.31-.02,18.47-.07ZM581.2,133.74c0,.48-.01,1.42-.01,1.89-2.32.01-4.66.01-6.99.01v-1.9c2.34-.01,4.67-.01,7,0ZM633.9,135.74v1.9c-6.21,0-12.41,0-18.62,0v-1.9c6.21-.01,12.42-.01,18.62,0ZM716,137.78c-.01.84-.01,2.52-.01,3.36-9.19-.01-18.39,0-27.58,0,0-.84-.01-2.52-.02-3.36,9.21-.02,18.41-.01,27.61,0ZM581.68,138.46c-1.06,3.23-5.34,1.22-7.89,1.48.81-3.29,5.44-1.21,7.89-1.48ZM633.9,140.74v1.9h-18.62v-1.9c6.21-.01,12.42-.01,18.62,0ZM581.19,142.74c0,.48.01,1.42.01,1.89-2.33.01-4.66.01-6.99.01,0-.48,0-1.42,0-1.9,2.33-.01,4.66-.01,6.99,0ZM716,145.78c-.01.84-.01,2.52-.01,3.36-9.19-.01-18.39,0-27.58,0,0-.84-.01-2.52-.02-3.36,9.2-.02,18.41-.01,27.61,0ZM633.9,146.24v1.9c-6.21,0-12.41,0-18.61,0-.01-.47-.01-1.43-.01-1.91,6.21,0,12.42,0,18.62.01ZM581.69,147.47c-1.22,3.11-5.99,1.79-8.39.73,2.52-1.64,5.6-.89,8.39-.73ZM581.19,151.74c0,.48.01,1.42.01,1.9h-7v-1.9c2.33-.01,4.66-.01,6.99,0ZM633.9,151.74v1.9c-6.21,0-12.41,0-18.62,0v-1.91c6.21-.01,12.42-.01,18.62,0ZM716,153.78c-.01.84-.01,2.52-.01,3.36-9.19-.01-18.39,0-27.58,0,0-.84-.01-2.52-.02-3.36,9.21-.02,18.41-.01,27.61,0ZM581.61,156.42c-.07,2.17-2.42,1.73-3.94,1.8-1.5-.08-3.86.36-3.85-1.83,2.59-.21,5.2-.22,7.79.03ZM633.91,156.74l-.02,1.9h-18.61v-1.9c6.21-.01,12.42-.01,18.63,0ZM581.2,160.75v1.88c-2.33.01-4.66.01-7,.01v-1.9c2.34-.01,4.67-.01,7,.01ZM716,161.78c-.01.84-.01,2.52-.01,3.36-9.19-.01-18.39,0-27.58,0,0-.84-.01-2.52-.02-3.36,9.2-.02,18.41-.01,27.61,0ZM633.91,162.24c-.01.47-.01,1.43-.01,1.9-6.12-.07-12.25.15-18.37-.08l-.54-.91.55-.83c6.12-.24,12.25,0,18.37-.08ZM581.65,165.43c-.26,1.46-1.43,2.02-2.84,1.77-1.74-.17-4.68.74-5.1-1.72,2.64-.33,5.3-.33,7.94-.05ZM633.9,167.74v1.9c-6.21,0-12.41,0-18.62,0v-1.91c6.21-.01,12.42-.01,18.62,0ZM581.2,169.74c0,.48-.01,1.42-.01,1.9h-6.99v-1.9c2.34-.01,4.67-.01,7,0ZM716,169.78c-.01.84-.01,2.52-.01,3.36-9.19-.01-18.39,0-27.58,0,0-.84-.01-2.52-.02-3.36,9.21-.02,18.41-.01,27.61,0ZM633.9,172.74v1.9c-6.21,0-12.41,0-18.61,0l-.02-1.9c6.22-.01,12.43-.01,18.63,0ZM581.71,174.48c-1.16,3.18-5.38,1.21-7.95,1.45.95-3.28,5.47-1.22,7.95-1.45ZM716,177.78c-.01.84-.01,2.52-.01,3.36-9.19-.01-18.39,0-27.58,0,0-.84-.01-2.52-.02-3.36,9.21-.02,18.41-.01,27.61,0ZM633.9,178.24v1.9c-6.13-.07-12.26.15-18.38-.08l-.51-.9.52-.84c6.12-.23,12.25-.02,18.37-.08ZM581.19,178.74c.01.48.01,1.42.01,1.89-2.33.01-4.66.01-6.99.01,0-.48,0-1.42,0-1.9,2.33-.01,4.67-.01,6.99,0ZM581.57,183.39c-.13.38-.38,1.13-.51,1.5-2.37.1-6.35,1.55-7.39-1.41,2.62-.32,5.27-.32,7.9-.09ZM633.9,183.74v1.9c-6.21,0-12.41,0-18.62,0v-1.91c6.21-.01,12.42-.01,18.62,0ZM716,185.78c-.01.84-.01,2.52-.01,3.36-9.19-.01-18.39,0-27.58,0,0-.84-.01-2.52-.02-3.36,9.21-.02,18.41-.01,27.61,0ZM581.19,187.74c0,.48.01,1.42.01,1.9h-7v-1.9c2.33-.01,4.66-.01,6.99,0ZM633.9,188.74v1.9h-18.62v-1.9c6.21-.01,12.42-.01,18.62,0ZM581.62,193.94c-2.5-.27-6.86,1.76-7.89-1.49,2.47.27,7.01-1.8,7.89,1.49ZM716,193.78c-.01.84-.01,2.52-.01,3.36-9.19-.01-18.39,0-27.58,0,0-.84-.01-2.52-.02-3.36,9.21-.02,18.41-.01,27.61,0ZM633.9,193.74v1.9c-6.21,0-12.42,0-18.63,0l.02-1.91c6.2,0,12.4,0,18.61.01ZM581.2,196.75v1.89h-7v-1.9c2.34-.01,4.67-.01,7,.01ZM633.9,199.23c0,.48-.01,1.44-.01,1.92-6.16-.07-12.32.12-18.47-.07-.01-.45-.02-1.33-.03-1.78,6.17-.19,12.34,0,18.51-.07ZM581.66,201.44c-.33,1.45-1.41,2.03-2.86,1.76-1.72-.18-4.75.77-5.03-1.78,2.63-.25,5.27-.26,7.89.02ZM716,201.78c-.01.84-.01,2.52-.01,3.36-9.19,0-18.39,0-27.58,0,0-.84-.01-2.52-.02-3.36,9.21-.02,18.41,0,27.61,0ZM633.9,204.74v1.9h-18.62v-1.9c6.21-.01,12.42-.01,18.62,0ZM581.21,205.74c0,.48,0,1.42-.02,1.9h-6.99v-1.9c2.34-.01,4.67-.01,7.01,0ZM716,209.78c-.01.84-.01,2.52-.01,3.36-9.19,0-18.38,0-27.58,0,0-.84-.01-2.52-.02-3.36,9.21-.02,18.41,0,27.61,0ZM633.9,209.74v1.9c-6.21.01-12.42,0-18.63,0l.02-1.91c6.2,0,12.4,0,18.61.01ZM716,217.78c-.01.84-.01,2.52-.01,3.36-9.19,0-18.38,0-27.58,0,0-.84-.01-2.52-.02-3.36,9.21-.02,18.41,0,27.61,0Z"/>
  <path class="cls-2" d="M410.09,12.11c-2.65-2.18-6.23-1.42-9.39-1.54-109.66.02-219.32,0-328.99,0-5.04-.03-10.1.1-15.15-.14-7.46-.11-14.12,3.74-20.61,6.91C21.24,25.82,8.73,38.95,3.43,55.32c-.38,2.06-1.06,4.04-1.89,5.96C.15,70.58-.15,80.02.08,89.43c.66,23.39.25,46.79.44,70.19.13.45.41,1.35.55,1.8-1.62,6.8.27,14.04-.57,21-.05,17.65-.04,35.32-.11,52.98-.02,5.02-.64,10.03-.28,15.06.72,9.07.03,18.19.47,27.27,2.31,4.33,3.18,9.16,5.18,13.65,5.77,13.22,14.81,25.33,27.27,32.9,7.71,4.58,15.64,9.05,24.35,11.4,5.32,1.26,10.81,1.4,16.25,1.37,114.17,0,228.34.01,342.52,0-.06-104.88.08-209.77-.08-314.65.29-4.24-2.83-7.84-5.98-10.29Z"/>
  <g>
    <path class="cls-1" d="M78.32,304.18H26.27V43.31h64.43l43.37,147.66,43.37-147.66h64.43v260.87h-52.04v-175.15l-33.87,118.54h-43.78l-33.87-118.13v174.74Z"/>
    <path class="cls-1" d="M345.13,250.86v-47.17c0-3.55-.83-6.08-2.48-7.59-1.65-1.5-4.54-2.26-8.67-2.26h-36.35c-32.49,0-48.74-15.31-48.74-45.94v-59.48c0-30.08,17.35-45.12,52.04-45.12h50.39c34.69,0,52.04,15.04,52.04,45.12v34.04h-59.06v-25.84c0-6.83-3.72-10.25-11.15-10.25h-14.04c-7.44,0-11.15,3.42-11.15,10.25v45.94c0,3.56.83,6.09,2.48,7.59,1.65,1.51,4.54,2.26,8.67,2.26h35.52c17.62,0,30.29,3.76,38,11.28,7.71,7.52,11.56,18.66,11.56,33.43v61.53c0,30.35-17.35,45.53-52.04,45.53h-49.98c-34.97,0-52.46-15.18-52.46-45.53v-33.64h59.06v25.84c0,6.84,3.72,10.25,11.15,10.25h14.04c7.43,0,11.15-3.42,11.15-10.25Z"/>
  </g>
</svg>